{
    "asset" : {
        "generator" : "Khronos glTF Blender I/O v1.6.16",
        "version" : "2.0"
    },
    "scene" : 0,
    "scenes" : [
        {
            "name" : "Scene",
            "nodes" : [
                0,
                1,
                2,
                3,
                5
            ]
        }
    ],
    "nodes" : [
        {
            "name" : "Light",
            "rotation" : [
                0.16907575726509094,
                0.7558803558349609,
                -0.27217137813568115,
                0.570947527885437
            ],
            "translation" : [
                4.076245307922363,
                5.903861999511719,
                -1.0054539442062378
            ]
        },
        {
            "name" : "Camera",
            "rotation" : [
                0.483536034822464,
                0.33687159419059753,
                -0.20870360732078552,
                0.7804827094078064
            ],
            "translation" : [
                7.358891487121582,
                4.958309173583984,
                6.925790786743164
            ]
        },
        {
            "mesh" : 0,
            "name" : "scope",
            "rotation" : [
                0.7071068286895752,
                0,
                0,
                0.7071067094802856
            ],
            "scale" : [
                0.010000000707805157,
                0.010000000707805157,
                0.010000000707805157
            ]
        },
        {
            "mesh" : 1,
            "name" : "magazine",
            "rotation" : [
                0.8621087670326233,
                0,
                0,
                0.5067232251167297
            ],
            "scale" : [
                0.010000000707805157,
                0.010000000707805157,
                0.010000000707805157
            ],
            "translation" : [
                0,
                0.0658583715558052,
                0.06329478323459625
            ]
        },
        {
            "mesh" : 2,
            "name" : "polySurface30"
        },
        {
            "children" : [
                4
            ],
            "mesh" : 3,
            "name" : "gun",
            "rotation" : [
                0.7071068286895752,
                0,
                0,
                0.7071067094802856
            ],
            "scale" : [
                0.010000000707805157,
                0.010000000707805157,
                0.010000000707805157
            ]
        }
    ],
    "materials" : [
        {
            "doubleSided" : true,
            "name" : "AK_scope_glass.002",
            "pbrMetallicRoughness" : {
                "baseColorFactor" : [
                    0.5,
                    0.5,
                    0.5,
                    0.33766233921051025
                ],
                "metallicFactor" : 0.5,
                "roughnessFactor" : 0.5527864098548889
            }
        },
        {
            "doubleSided" : true,
            "name" : "AK4",
            "pbrMetallicRoughness" : {
                "baseColorTexture" : {
                    "index" : 0
                },
                "metallicFactor" : 0.5,
                "roughnessFactor" : 0.5527864098548889
            }
        }
    ],
    "meshes" : [
        {
            "name" : "Mesh.006",
            "primitives" : [
                {
                    "attributes" : {
                        "POSITION" : 0,
                        "NORMAL" : 1,
                        "TEXCOORD_0" : 2
                    },
                    "indices" : 3,
                    "material" : 0
                },
                {
                    "attributes" : {
                        "POSITION" : 4,
                        "NORMAL" : 5,
                        "TEXCOORD_0" : 6
                    },
                    "indices" : 7,
                    "material" : 1
                }
            ]
        },
        {
            "name" : "Mesh.007",
            "primitives" : [
                {
                    "attributes" : {
                        "POSITION" : 8,
                        "NORMAL" : 9,
                        "TEXCOORD_0" : 10
                    },
                    "indices" : 11,
                    "material" : 1
                }
            ]
        },
        {
            "name" : "Mesh.009",
            "primitives" : [
                {
                    "attributes" : {
                        "POSITION" : 12,
                        "NORMAL" : 13,
                        "TEXCOORD_0" : 14
                    },
                    "indices" : 15,
                    "material" : 1
                }
            ]
        },
        {
            "name" : "Mesh.008",
            "primitives" : [
                {
                    "attributes" : {
                        "POSITION" : 16,
                        "NORMAL" : 17,
                        "TEXCOORD_0" : 18
                    },
                    "indices" : 19,
                    "material" : 1
                }
            ]
        }
    ],
    "textures" : [
        {
            "sampler" : 0,
            "source" : 0
        }
    ],
    "images" : [
        {
            "mimeType" : "image/png",
            "name" : "AK4_BaseColor",
            "uri" : "AK4_BaseColor.png"
        }
    ],
    "accessors" : [
        {
            "bufferView" : 0,
            "componentType" : 5126,
            "count" : 24,
            "max" : [
                1.9724771976470947,
                7.273622512817383,
                -10.074507713317871
            ],
            "min" : [
                -1.9724770784378052,
                7.164412498474121,
                -12.842222213745117
            ],
            "type" : "VEC3"
        },
        {
            "bufferView" : 1,
            "componentType" : 5126,
            "count" : 24,
            "type" : "VEC3"
        },
        {
            "bufferView" : 2,
            "componentType" : 5126,
            "count" : 24,
            "type" : "VEC2"
        },
        {
            "bufferView" : 3,
            "componentType" : 5123,
            "count" : 48,
            "type" : "SCALAR"
        },
        {
            "bufferView" : 4,
            "componentType" : 5126,
            "count" : 883,
            "max" : [
                2.193826198577881,
                9.16262435913086,
                -8.744576454162598
            ],
            "min" : [
                -2.193826198577881,
                2.864109992980957,
                -12.91804027557373
            ],
            "type" : "VEC3"
        },
        {
            "bufferView" : 5,
            "componentType" : 5126,
            "count" : 883,
            "type" : "VEC3"
        },
        {
            "bufferView" : 6,
            "componentType" : 5126,
            "count" : 883,
            "type" : "VEC2"
        },
        {
            "bufferView" : 7,
            "componentType" : 5123,
            "count" : 1314,
            "type" : "SCALAR"
        },
        {
            "bufferView" : 8,
            "componentType" : 5126,
            "count" : 944,
            "max" : [
                1.3271645307540894,
                16.8604679107666,
                14.543651580810547
            ],
            "min" : [
                -1.3271645307540894,
                11.520564079284668,
                -1.9952383041381836
            ],
            "type" : "VEC3"
        },
        {
            "bufferView" : 9,
            "componentType" : 5126,
            "count" : 944,
            "type" : "VEC3"
        },
        {
            "bufferView" : 10,
            "componentType" : 5126,
            "count" : 944,
            "type" : "VEC2"
        },
        {
            "bufferView" : 11,
            "componentType" : 5123,
            "count" : 1344,
            "type" : "SCALAR"
        },
        {
            "bufferView" : 12,
            "componentType" : 5126,
            "count" : 2246,
            "max" : [
                2.699392080307007,
                38.60747146606445,
                6.673315048217773
            ],
            "min" : [
                -2.699392080307007,
                27.854507446289062,
                -7.8837785720825195
            ],
            "type" : "VEC3"
        },
        {
            "bufferView" : 13,
            "componentType" : 5126,
            "count" : 2246,
            "type" : "VEC3"
        },
        {
            "bufferView" : 14,
            "componentType" : 5126,
            "count" : 2246,
            "type" : "VEC2"
        },
        {
            "bufferView" : 15,
            "componentType" : 5123,
            "count" : 3450,
            "type" : "SCALAR"
        },
        {
            "bufferView" : 16,
            "componentType" : 5126,
            "count" : 5840,
            "max" : [
                2.804928779602051,
                35.18413162231445,
                10.432781219482422
            ],
            "min" : [
                -2.804928779602051,
                -25.83488655090332,
                -9.549919128417969
            ],
            "type" : "VEC3"
        },
        {
            "bufferView" : 17,
            "componentType" : 5126,
            "count" : 5840,
            "type" : "VEC3"
        },
        {
            "bufferView" : 18,
            "componentType" : 5126,
            "count" : 5840,
            "type" : "VEC2"
        },
        {
            "bufferView" : 19,
            "componentType" : 5123,
            "count" : 8583,
            "type" : "SCALAR"
        }
    ],
    "bufferViews" : [
        {
            "buffer" : 0,
            "byteLength" : 288,
            "byteOffset" : 0
        },
        {
            "buffer" : 0,
            "byteLength" : 288,
            "byteOffset" : 288
        },
        {
            "buffer" : 0,
            "byteLength" : 192,
            "byteOffset" : 576
        },
        {
            "buffer" : 0,
            "byteLength" : 96,
            "byteOffset" : 768
        },
        {
            "buffer" : 0,
            "byteLength" : 10596,
            "byteOffset" : 864
        },
        {
            "buffer" : 0,
            "byteLength" : 10596,
            "byteOffset" : 11460
        },
        {
            "buffer" : 0,
            "byteLength" : 7064,
            "byteOffset" : 22056
        },
        {
            "buffer" : 0,
            "byteLength" : 2628,
            "byteOffset" : 29120
        },
        {
            "buffer" : 0,
            "byteLength" : 11328,
            "byteOffset" : 31748
        },
        {
            "buffer" : 0,
            "byteLength" : 11328,
            "byteOffset" : 43076
        },
        {
            "buffer" : 0,
            "byteLength" : 7552,
            "byteOffset" : 54404
        },
        {
            "buffer" : 0,
            "byteLength" : 2688,
            "byteOffset" : 61956
        },
        {
            "buffer" : 0,
            "byteLength" : 26952,
            "byteOffset" : 64644
        },
        {
            "buffer" : 0,
            "byteLength" : 26952,
            "byteOffset" : 91596
        },
        {
            "buffer" : 0,
            "byteLength" : 17968,
            "byteOffset" : 118548
        },
        {
            "buffer" : 0,
            "byteLength" : 6900,
            "byteOffset" : 136516
        },
        {
            "buffer" : 0,
            "byteLength" : 70080,
            "byteOffset" : 143416
        },
        {
            "buffer" : 0,
            "byteLength" : 70080,
            "byteOffset" : 213496
        },
        {
            "buffer" : 0,
            "byteLength" : 46720,
            "byteOffset" : 283576
        },
        {
            "buffer" : 0,
            "byteLength" : 17166,
            "byteOffset" : 330296
        }
    ],
    "samplers" : [
        {
            "magFilter" : 9729,
            "minFilter" : 9987
        }
    ],
    "buffers" : [
        {
            "byteLength" : 347464,
            "uri" : "AK 9 black.bin"
        }
    ]
}
