<svg xmlns="http://www.w3.org/2000/svg" viewBox="0 0 64 64"><g fill="#134563"><path d="M32 47.4c-16.2 0-23.5-14.3-23.8-14.9-.2-.4-.2-.8 0-1.2.3-.6 7.6-14.9 23.8-14.9s23.5 14.3 23.8 14.9c.2.4.2.8 0 1.2-.3.7-7.6 14.9-23.8 14.9zM10.9 32c1.5 2.6 8.4 12.8 21.1 12.8 12.7 0 19.6-10.2 21.1-12.8-1.5-2.6-8.4-12.8-21.1-12.8-12.7 0-19.6 10.2-21.1 12.8z"/><path d="M32 44.6c-7 0-12.6-5.7-12.6-12.6S25.1 19.4 32 19.4 44.6 25.1 44.6 32 39 44.6 32 44.6zM32 22c-5.5 0-10 4.5-10 10s4.5 10 10 10 10-4.5 10-10-4.5-10-10-10z"/><path d="M32 39c-3.8 0-7-3.1-7-7 0-.7.6-1.3 1.3-1.3.7 0 1.3.6 1.3 1.3 0 2.4 1.9 4.3 4.3 4.3s4.3-1.9 4.3-4.3-1.9-4.3-4.3-4.3c-.7 0-1.3-.6-1.3-1.3 0-.7.6-1.3 1.3-1.3 3.8 0 7 3.1 7 7S35.8 39 32 39"/></g></svg>