<svg width="443" height="443" viewBox="0 0 443 443" fill="none" xmlns="http://www.w3.org/2000/svg">
<g clip-path="url(#clip0_80_2)">
<path d="M221.02 341.304C171.312 341.304 117.814 321.864 66.31 285.084C27.808 257.59 4.044 230.351 3.051 229.203C-1.017 224.506 -1.017 217.534 3.051 212.836C4.044 211.69 27.807 184.449 66.31 156.955C117.815 120.178 171.313 100.736 221.02 100.736C270.728 100.736 324.227 120.177 375.73 156.955C414.232 184.449 437.996 211.689 438.989 212.836C443.057 217.533 443.057 224.505 438.989 229.203C437.996 230.349 414.233 257.59 375.73 285.084C324.227 321.863 270.729 341.304 221.02 341.304ZM29.638 221.021C39.248 230.82 57.385 248.051 81.332 265.092C114.162 288.453 165.046 316.304 221.02 316.304C276.994 316.304 327.879 288.453 360.708 265.092C384.652 248.054 402.79 230.821 412.402 221.021C402.793 211.222 384.655 193.991 360.708 176.95C327.879 153.588 276.994 125.738 221.02 125.738C165.046 125.738 114.162 153.588 81.332 176.95C57.388 193.988 39.25 211.219 29.638 221.021Z" fill="white"/>
<path d="M221.02 298.521C178.286 298.521 143.52 263.754 143.52 221.021C143.52 178.288 178.286 143.521 221.02 143.521C239.814 143.521 257.944 150.335 272.068 162.709C277.261 167.258 277.783 175.155 273.234 180.348C268.685 185.541 260.787 186.062 255.595 181.514C246.031 173.135 233.751 168.521 221.019 168.521C192.07 168.521 168.519 192.073 168.519 221.021C168.519 249.969 192.07 273.521 221.019 273.521C249.969 273.521 273.519 249.969 273.519 221.021C273.519 214.118 279.116 208.521 286.019 208.521C292.922 208.521 298.519 214.118 298.519 221.021C298.521 263.754 263.754 298.521 221.02 298.521Z" fill="white"/>
<path d="M221.02 246.021C207.235 246.021 196.02 234.806 196.02 221.021C196.02 207.236 207.235 196.021 221.02 196.021C234.806 196.021 246.02 207.236 246.02 221.021C246.02 234.806 234.806 246.021 221.02 246.021Z" fill="white"/>
</g>
<defs>
<clipPath id="clip0_80_2">
<rect width="442.04" height="442.04" fill="white"/>
</clipPath>
</defs>
</svg>
