{
  "accessors": [
    {
      "bufferView": 2,
      "componentType": 5126,
      "count": 2,
      "max": [
        3.8098740577697754,
        2.4396979808807373,
        87.51034545898438
      ],
      "min": [
        -0.871891975402832,
        0.7383139729499817,
        81.77250671386719
      ],
      "type": "VEC3"
    },
    {
      "bufferView": 1,
      "componentType": 5126,
      "count": 2,
      "max": [
        0.0,
        0.0
      ],
      "min": [
        0.0,
        0.0
      ],
      "type": "VEC2"
    },
    {
      "bufferView": 0,
      "componentType": 5125,
      "count": 2,
      "type": "SCALAR"
    },
    {
      "bufferView": 2,
      "byteOffset": 24,
      "componentType": 5126,
      "count": 2370,
      "max": [
        11.36245346069336,
        6.3831467628479,
        87.73758697509766
      ],
      "min": [
        -4.282275199890137,
        -4.041170120239258,
        21.256542205810547
      ],
      "type": "VEC3"
    },
    {
      "bufferView": 2,
      "byteOffset": 28464,
      "componentType": 5126,
      "count": 2370,
      "max": [
        1.0,
        0.9997726082801819,
        1.0
      ],
      "min": [
        -1.0,
        -1.0,
        -1.0
      ],
      "type": "VEC3"
    },
    {
      "bufferView": 3,
      "componentType": 5126,
      "count": 2370,
      "max": [
        0.9999994039535522,
        0.9998853206634521,
        0.9960243701934814,
        1.0
      ],
      "min": [
        -1.0,
        -0.9955713152885437,
        -0.9999062418937683,
        -1.0
      ],
      "type": "VEC4"
    },
    {
      "bufferView": 1,
      "byteOffset": 16,
      "componentType": 5126,
      "count": 2370,
      "max": [
        0.9972190260887146,
        0.9945089817047119
      ],
      "min": [
        0.00355900009162724,
        0.0015559999737888575
      ],
      "type": "VEC2"
    },
    {
      "bufferView": 0,
      "byteOffset": 8,
      "componentType": 5125,
      "count": 12822,
      "type": "SCALAR"
    },
    {
      "bufferView": 2,
      "byteOffset": 56904,
      "componentType": 5126,
      "count": 19791,
      "max": [
        29.46296501159668,
        7.471337795257568,
        87.27230072021484
      ],
      "min": [
        -29.46296501159668,
        -9.580336570739746,
        -0.3909350037574768
      ],
      "type": "VEC3"
    },
    {
      "bufferView": 2,
      "byteOffset": 294396,
      "componentType": 5126,
      "count": 19791,
      "max": [
        0.9999796152114868,
        0.9999786615371704,
        0.9995965361595154
      ],
      "min": [
        -0.999996542930603,
        -0.9999529123306274,
        -0.9999586343765259
      ],
      "type": "VEC3"
    },
    {
      "bufferView": 3,
      "byteOffset": 37920,
      "componentType": 5126,
      "count": 19791,
      "max": [
        0.9999995231628418,
        0.9999955892562866,
        0.999569296836853,
        1.0
      ],
      "min": [
        -0.9999473690986633,
        -0.9999980926513672,
        -0.9996446967124939,
        -1.0
      ],
      "type": "VEC4"
    },
    {
      "bufferView": 1,
      "byteOffset": 18976,
      "componentType": 5126,
      "count": 19791,
      "max": [
        0.9987080097198486,
        0.9985910058021545
      ],
      "min": [
        0.004017999861389399,
        0.0059090000577270985
      ],
      "type": "VEC2"
    },
    {
      "bufferView": 0,
      "byteOffset": 51296,
      "componentType": 5125,
      "count": 109464,
      "type": "SCALAR"
    },
    {
      "bufferView": 2,
      "byteOffset": 531888,
      "componentType": 5126,
      "count": 3560,
      "max": [
        4.678840160369873,
        3.694227933883667,
        87.47824096679688
      ],
      "min": [
        -4.641528129577637,
        -4.925108909606934,
        78.92071533203125
      ],
      "type": "VEC3"
    },
    {
      "bufferView": 2,
      "byteOffset": 574608,
      "componentType": 5126,
      "count": 3560,
      "max": [
        0.9998249411582947,
        0.9983954429626465,
        0.9995608329772949
      ],
      "min": [
        -0.9999998807907104,
        -0.9986900091171265,
        -0.9997343420982361
      ],
      "type": "VEC3"
    },
    {
      "bufferView": 3,
      "byteOffset": 354576,
      "componentType": 5126,
      "count": 3560,
      "max": [
        0.999880850315094,
        0.999763548374176,
        0.9975261688232422,
        1.0
      ],
      "min": [
        -0.9987397193908691,
        -0.9966236352920532,
        -0.9996636509895325,
        -1.0
      ],
      "type": "VEC4"
    },
    {
      "bufferView": 1,
      "byteOffset": 177304,
      "componentType": 5126,
      "count": 3560,
      "max": [
        0.9886699914932251,
        0.9856560230255127
      ],
      "min": [
        0.11351799964904785,
        0.0819849967956543
      ],
      "type": "VEC2"
    },
    {
      "bufferView": 0,
      "byteOffset": 489152,
      "componentType": 5125,
      "count": 17472,
      "type": "SCALAR"
    }
  ],
  "asset": {
    "extras": {
      "author": "Autonarch (https://sketchfab.com/Autonarch)",
      "license": "CC-BY-4.0 (http://creativecommons.org/licenses/by/4.0/)",
      "source": "https://sketchfab.com/3d-models/stylized-survivor-girl-269a111a3d1e49eaa3450ca280e081d8",
      "title": "Stylized Survivor Girl"
    },
    "generator": "Sketchfab-12.65.0",
    "version": "2.0"
  },
  "bufferViews": [
    {
      "buffer": 0,
      "byteLength": 559040,
      "name": "floatBufferViews",
      "target": 34963
    },
    {
      "buffer": 0,
      "byteLength": 205784,
      "byteOffset": 559040,
      "byteStride": 8,
      "name": "floatBufferViews",
      "target": 34962
    },
    {
      "buffer": 0,
      "byteLength": 617328,
      "byteOffset": 764824,
      "byteStride": 12,
      "name": "floatBufferViews",
      "target": 34962
    },
    {
      "buffer": 0,
      "byteLength": 411536,
      "byteOffset": 1382152,
      "byteStride": 16,
      "name": "floatBufferViews",
      "target": 34962
    }
  ],
  "buffers": [
    {
      "byteLength": 1793688,
      "uri": "scene.bin"
    }
  ],
  "images": [
    {
      "uri": "textures/Alicia_d_baseColor.png"
    },
    {
      "uri": "textures/Alicia_d_metallicRoughness.png"
    },
    {
      "uri": "textures/Alicia_d_normal.jpeg"
    }
  ],
  "materials": [
    {
      "doubleSided": true,
      "name": "Alicia_d",
      "normalTexture": {
        "index": 2
      },
      "pbrMetallicRoughness": {
        "baseColorTexture": {
          "index": 0
        },
        "metallicRoughnessTexture": {
          "index": 1
        }
      }
    }
  ],
  "meshes": [
    {
      "name": "Object_0",
      "primitives": [
        {
          "attributes": {
            "POSITION": 0,
            "TEXCOORD_0": 1
          },
          "indices": 2,
          "material": 0,
          "mode": 1
        }
      ]
    },
    {
      "name": "Object_1",
      "primitives": [
        {
          "attributes": {
            "NORMAL": 4,
            "POSITION": 3,
            "TANGENT": 5,
            "TEXCOORD_0": 6
          },
          "indices": 7,
          "material": 0,
          "mode": 4
        }
      ]
    },
    {
      "name": "Object_2",
      "primitives": [
        {
          "attributes": {
            "NORMAL": 9,
            "POSITION": 8,
            "TANGENT": 10,
            "TEXCOORD_0": 11
          },
          "indices": 12,
          "material": 0,
          "mode": 4
        }
      ]
    },
    {
      "name": "Object_3",
      "primitives": [
        {
          "attributes": {
            "NORMAL": 14,
            "POSITION": 13,
            "TANGENT": 15,
            "TEXCOORD_0": 16
          },
          "indices": 17,
          "material": 0,
          "mode": 4
        }
      ]
    }
  ],
  "nodes": [
    {
      "children": [
        1
      ],
      "matrix": [
        1.0,
        0.0,
        0.0,
        0.0,
        0.0,
        2.220446049250313e-16,
        -1.0,
        0.0,
        0.0,
        1.0,
        2.220446049250313e-16,
        0.0,
        0.0,
        0.0,
        0.0,
        1.0
      ],
      "name": "Sketchfab_model"
    },
    {
      "children": [
        2,
        3,
        4,
        5
      ],
      "name": "Alicia.obj.cleaner.materialmerger.gles"
    },
    {
      "mesh": 0,
      "name": "Object_2"
    },
    {
      "mesh": 1,
      "name": "Object_3"
    },
    {
      "mesh": 2,
      "name": "Object_4"
    },
    {
      "mesh": 3,
      "name": "Object_5"
    }
  ],
  "samplers": [
    {
      "magFilter": 9729,
      "minFilter": 9987,
      "wrapS": 10497,
      "wrapT": 10497
    }
  ],
  "scene": 0,
  "scenes": [
    {
      "name": "Sketchfab_Scene",
      "nodes": [
        0
      ]
    }
  ],
  "textures": [
    {
      "sampler": 0,
      "source": 0
    },
    {
      "sampler": 0,
      "source": 1
    },
    {
      "sampler": 0,
      "source": 2
    }
  ]
}
