{
    "asset" : {
        "generator" : "Khronos glTF Blender I/O v1.6.16",
        "version" : "2.0"
    },
    "scene" : 0,
    "scenes" : [
        {
            "name" : "Scene",
            "nodes" : [
                0,
                1,
                2,
                3,
                4
            ]
        }
    ],
    "nodes" : [
        {
            "name" : "Light",
            "rotation" : [
                0.16907575726509094,
                0.7558803558349609,
                -0.27217137813568115,
                0.570947527885437
            ],
            "translation" : [
                4.076245307922363,
                5.903861999511719,
                -1.0054539442062378
            ]
        },
        {
            "name" : "Camera",
            "rotation" : [
                0.483536034822464,
                0.33687159419059753,
                -0.20870360732078552,
                0.7804827094078064
            ],
            "translation" : [
                7.358891487121582,
                4.958309173583984,
                6.925790786743164
            ]
        },
        {
            "mesh" : 0,
            "name" : "polySurface4",
            "rotation" : [
                0.7071068286895752,
                0,
                0,
                0.7071067094802856
            ],
            "scale" : [
                0.010000000707805157,
                0.010000000707805157,
                0.010000000707805157
            ],
            "translation" : [
                0,
                0,
                -0.0004376867727842182
            ]
        },
        {
            "mesh" : 1,
            "name" : "magazine",
            "rotation" : [
                0.8742561936378479,
                0,
                0,
                0.48546484112739563
            ],
            "scale" : [
                0.010000000707805157,
                0.010000000707805157,
                0.010000000707805157
            ],
            "translation" : [
                0,
                -0.05229170247912407,
                0.006281575188040733
            ]
        },
        {
            "mesh" : 2,
            "name" : "polySurface6",
            "rotation" : [
                0.7071068286895752,
                0,
                0,
                0.7071067094802856
            ],
            "scale" : [
                0.010000000707805157,
                0.010000000707805157,
                0.010000000707805157
            ]
        }
    ],
    "materials" : [
        {
            "doubleSided" : true,
            "name" : "handgun_v2",
            "normalTexture" : {
                "index" : 0
            },
            "pbrMetallicRoughness" : {
                "baseColorTexture" : {
                    "index" : 1
                },
                "metallicFactor" : 0.5945273637771606,
                "roughnessFactor" : 0.5527864098548889
            }
        }
    ],
    "meshes" : [
        {
            "name" : "Mesh.010",
            "primitives" : [
                {
                    "attributes" : {
                        "POSITION" : 0,
                        "NORMAL" : 1,
                        "TEXCOORD_0" : 2
                    },
                    "indices" : 3,
                    "material" : 0
                }
            ]
        },
        {
            "name" : "Mesh.011",
            "primitives" : [
                {
                    "attributes" : {
                        "POSITION" : 4,
                        "NORMAL" : 5,
                        "TEXCOORD_0" : 6
                    },
                    "indices" : 7,
                    "material" : 0
                }
            ]
        },
        {
            "name" : "Mesh.012",
            "primitives" : [
                {
                    "attributes" : {
                        "POSITION" : 8,
                        "NORMAL" : 9,
                        "TEXCOORD_0" : 10,
                        "TEXCOORD_1" : 11
                    },
                    "indices" : 12,
                    "material" : 0
                }
            ]
        }
    ],
    "textures" : [
        {
            "sampler" : 0,
            "source" : 0
        },
        {
            "sampler" : 0,
            "source" : 1
        }
    ],
    "images" : [
        {
            "mimeType" : "image/png",
            "name" : "handgun_v2_Normal",
            "uri" : "handgun_v2_Normal.png"
        },
        {
            "mimeType" : "image/png",
            "name" : "handgun_v2_BaseColor",
            "uri" : "handgun_v2_BaseColor.png"
        }
    ],
    "accessors" : [
        {
            "bufferView" : 0,
            "componentType" : 5126,
            "count" : 753,
            "max" : [
                1.855839729309082,
                -1.62939453125,
                -5.023409843444824
            ],
            "min" : [
                -1.848414421081543,
                -12.167045593261719,
                -7.344814777374268
            ],
            "type" : "VEC3"
        },
        {
            "bufferView" : 1,
            "componentType" : 5126,
            "count" : 753,
            "type" : "VEC3"
        },
        {
            "bufferView" : 2,
            "componentType" : 5126,
            "count" : 753,
            "type" : "VEC2"
        },
        {
            "bufferView" : 3,
            "componentType" : 5123,
            "count" : 1050,
            "type" : "SCALAR"
        },
        {
            "bufferView" : 4,
            "componentType" : 5126,
            "count" : 888,
            "max" : [
                1.2009646892547607,
                -5.106703281402588,
                7.883073806762695
            ],
            "min" : [
                -1.2009639739990234,
                -11.205399513244629,
                -1.048143982887268
            ],
            "type" : "VEC3"
        },
        {
            "bufferView" : 5,
            "componentType" : 5126,
            "count" : 888,
            "type" : "VEC3"
        },
        {
            "bufferView" : 6,
            "componentType" : 5126,
            "count" : 888,
            "type" : "VEC2"
        },
        {
            "bufferView" : 7,
            "componentType" : 5123,
            "count" : 1284,
            "type" : "SCALAR"
        },
        {
            "bufferView" : 8,
            "componentType" : 5126,
            "count" : 6563,
            "max" : [
                2.652942180633545,
                12.060951232910156,
                8.114747047424316
            ],
            "min" : [
                -1.8462480306625366,
                -12.621337890625,
                -7.163471221923828
            ],
            "type" : "VEC3"
        },
        {
            "bufferView" : 9,
            "componentType" : 5126,
            "count" : 6563,
            "type" : "VEC3"
        },
        {
            "bufferView" : 10,
            "componentType" : 5126,
            "count" : 6563,
            "type" : "VEC2"
        },
        {
            "bufferView" : 11,
            "componentType" : 5126,
            "count" : 6563,
            "type" : "VEC2"
        },
        {
            "bufferView" : 12,
            "componentType" : 5123,
            "count" : 9777,
            "type" : "SCALAR"
        }
    ],
    "bufferViews" : [
        {
            "buffer" : 0,
            "byteLength" : 9036,
            "byteOffset" : 0
        },
        {
            "buffer" : 0,
            "byteLength" : 9036,
            "byteOffset" : 9036
        },
        {
            "buffer" : 0,
            "byteLength" : 6024,
            "byteOffset" : 18072
        },
        {
            "buffer" : 0,
            "byteLength" : 2100,
            "byteOffset" : 24096
        },
        {
            "buffer" : 0,
            "byteLength" : 10656,
            "byteOffset" : 26196
        },
        {
            "buffer" : 0,
            "byteLength" : 10656,
            "byteOffset" : 36852
        },
        {
            "buffer" : 0,
            "byteLength" : 7104,
            "byteOffset" : 47508
        },
        {
            "buffer" : 0,
            "byteLength" : 2568,
            "byteOffset" : 54612
        },
        {
            "buffer" : 0,
            "byteLength" : 78756,
            "byteOffset" : 57180
        },
        {
            "buffer" : 0,
            "byteLength" : 78756,
            "byteOffset" : 135936
        },
        {
            "buffer" : 0,
            "byteLength" : 52504,
            "byteOffset" : 214692
        },
        {
            "buffer" : 0,
            "byteLength" : 52504,
            "byteOffset" : 267196
        },
        {
            "buffer" : 0,
            "byteLength" : 19554,
            "byteOffset" : 319700
        }
    ],
    "samplers" : [
        {
            "magFilter" : 9729,
            "minFilter" : 9987
        }
    ],
    "buffers" : [
        {
            "byteLength" : 339256,
            "uri" : "handgun .bin"
        }
    ]
}
