{
    "asset" : {
        "generator" : "Khronos glTF Blender I/O v1.6.16",
        "version" : "2.0"
    },
    "scene" : 0,
    "scenes" : [
        {
            "name" : "Scene",
            "nodes" : [
                0,
                1,
                2,
                3,
                4
            ]
        }
    ],
    "nodes" : [
        {
            "name" : "Light",
            "rotation" : [
                0.16907575726509094,
                0.7558803558349609,
                -0.27217137813568115,
                0.570947527885437
            ],
            "translation" : [
                4.076245307922363,
                5.903861999511719,
                -1.0054539442062378
            ]
        },
        {
            "name" : "Camera",
            "rotation" : [
                0.483536034822464,
                0.33687159419059753,
                -0.20870360732078552,
                0.7804827094078064
            ],
            "translation" : [
                7.358891487121582,
                4.958309173583984,
                6.925790786743164
            ]
        },
        {
            "mesh" : 0,
            "name" : "pCube4",
            "rotation" : [
                0.7071068286895752,
                0,
                0,
                0.7071067094802856
            ],
            "scale" : [
                0.010000000707805157,
                0.010000000707805157,
                0.010000000707805157
            ]
        },
        {
            "mesh" : 1,
            "name" : "scope",
            "rotation" : [
                0.7071068286895752,
                0,
                0,
                0.7071067094802856
            ],
            "scale" : [
                0.010000000707805157,
                0.010000000707805157,
                0.010000000707805157
            ]
        },
        {
            "mesh" : 2,
            "name" : "polySurface35",
            "rotation" : [
                0.7071068286895752,
                0,
                0,
                0.7071067094802856
            ],
            "scale" : [
                0.010000000707805157,
                0.010000000707805157,
                0.010000000707805157
            ]
        }
    ],
    "materials" : [
        {
            "doubleSided" : true,
            "emissiveFactor" : [
                1,
                1,
                1
            ],
            "emissiveTexture" : {
                "index" : 0
            },
            "name" : "AK_9.001",
            "normalTexture" : {
                "index" : 1
            },
            "pbrMetallicRoughness" : {
                "baseColorTexture" : {
                    "index" : 2
                },
                "metallicFactor" : 0,
                "roughnessFactor" : 0.5527864098548889
            }
        },
        {
            "doubleSided" : true,
            "name" : "AK_scope_glass.001",
            "pbrMetallicRoughness" : {
                "baseColorFactor" : [
                    0.6233766078948975,
                    0.6233766078948975,
                    0.6233766078948975,
                    0.08441555500030518
                ],
                "metallicFactor" : 0.5,
                "roughnessFactor" : 0.5527864098548889
            }
        }
    ],
    "meshes" : [
        {
            "name" : "Mesh.003",
            "primitives" : [
                {
                    "attributes" : {
                        "POSITION" : 0,
                        "NORMAL" : 1,
                        "TEXCOORD_0" : 2
                    },
                    "indices" : 3,
                    "material" : 0
                }
            ]
        },
        {
            "name" : "Mesh.004",
            "primitives" : [
                {
                    "attributes" : {
                        "POSITION" : 4,
                        "NORMAL" : 5,
                        "TEXCOORD_0" : 6
                    },
                    "indices" : 7,
                    "material" : 0
                },
                {
                    "attributes" : {
                        "POSITION" : 8,
                        "NORMAL" : 9,
                        "TEXCOORD_0" : 10
                    },
                    "indices" : 11,
                    "material" : 1
                }
            ]
        },
        {
            "name" : "Mesh.005",
            "primitives" : [
                {
                    "attributes" : {
                        "POSITION" : 12,
                        "NORMAL" : 13,
                        "TEXCOORD_0" : 14
                    },
                    "indices" : 15,
                    "material" : 0
                }
            ]
        }
    ],
    "textures" : [
        {
            "sampler" : 0,
            "source" : 0
        },
        {
            "sampler" : 0,
            "source" : 1
        },
        {
            "sampler" : 0,
            "source" : 2
        }
    ],
    "images" : [
        {
            "mimeType" : "image/png",
            "name" : "AK_9_Emissive",
            "uri" : "AK_9_Emissive.png"
        },
        {
            "mimeType" : "image/png",
            "name" : "AK_9_Normal",
            "uri" : "AK_9_Normal.png"
        },
        {
            "mimeType" : "image/png",
            "name" : "new concept_lambert6_BaseColor",
            "uri" : "new%20concept_lambert6_BaseColor.png"
        }
    ],
    "accessors" : [
        {
            "bufferView" : 0,
            "componentType" : 5126,
            "count" : 2889,
            "max" : [
                7.624365329742432,
                61.91131591796875,
                0.23037958145141602
            ],
            "min" : [
                -7.624365329742432,
                -30.46381950378418,
                -12.701862335205078
            ],
            "type" : "VEC3"
        },
        {
            "bufferView" : 1,
            "componentType" : 5126,
            "count" : 2889,
            "type" : "VEC3"
        },
        {
            "bufferView" : 2,
            "componentType" : 5126,
            "count" : 2889,
            "type" : "VEC2"
        },
        {
            "bufferView" : 3,
            "componentType" : 5123,
            "count" : 4200,
            "type" : "SCALAR"
        },
        {
            "bufferView" : 4,
            "componentType" : 5126,
            "count" : 1271,
            "max" : [
                12.645593643188477,
                28.057048797607422,
                -4.1964521408081055
            ],
            "min" : [
                3.340203285217285,
                12.793353080749512,
                -11.630176544189453
            ],
            "type" : "VEC3"
        },
        {
            "bufferView" : 5,
            "componentType" : 5126,
            "count" : 1271,
            "type" : "VEC3"
        },
        {
            "bufferView" : 6,
            "componentType" : 5126,
            "count" : 1271,
            "type" : "VEC2"
        },
        {
            "bufferView" : 7,
            "componentType" : 5123,
            "count" : 1854,
            "type" : "SCALAR"
        },
        {
            "bufferView" : 8,
            "componentType" : 5126,
            "count" : 20,
            "max" : [
                10.936441421508789,
                27.162612915039062,
                -6.402614593505859
            ],
            "min" : [
                6.104092121124268,
                19.524410247802734,
                -10.158432006835938
            ],
            "type" : "VEC3"
        },
        {
            "bufferView" : 9,
            "componentType" : 5126,
            "count" : 20,
            "type" : "VEC3"
        },
        {
            "bufferView" : 10,
            "componentType" : 5126,
            "count" : 20,
            "type" : "VEC2"
        },
        {
            "bufferView" : 11,
            "componentType" : 5123,
            "count" : 48,
            "type" : "SCALAR"
        },
        {
            "bufferView" : 12,
            "componentType" : 5126,
            "count" : 4691,
            "max" : [
                3.136093854904175,
                36.300262451171875,
                14.471206665039062
            ],
            "min" : [
                -3.136093854904175,
                -26.957992553710938,
                -13.527153015136719
            ],
            "type" : "VEC3"
        },
        {
            "bufferView" : 13,
            "componentType" : 5126,
            "count" : 4691,
            "type" : "VEC3"
        },
        {
            "bufferView" : 14,
            "componentType" : 5126,
            "count" : 4691,
            "type" : "VEC2"
        },
        {
            "bufferView" : 15,
            "componentType" : 5123,
            "count" : 6900,
            "type" : "SCALAR"
        }
    ],
    "bufferViews" : [
        {
            "buffer" : 0,
            "byteLength" : 34668,
            "byteOffset" : 0
        },
        {
            "buffer" : 0,
            "byteLength" : 34668,
            "byteOffset" : 34668
        },
        {
            "buffer" : 0,
            "byteLength" : 23112,
            "byteOffset" : 69336
        },
        {
            "buffer" : 0,
            "byteLength" : 8400,
            "byteOffset" : 92448
        },
        {
            "buffer" : 0,
            "byteLength" : 15252,
            "byteOffset" : 100848
        },
        {
            "buffer" : 0,
            "byteLength" : 15252,
            "byteOffset" : 116100
        },
        {
            "buffer" : 0,
            "byteLength" : 10168,
            "byteOffset" : 131352
        },
        {
            "buffer" : 0,
            "byteLength" : 3708,
            "byteOffset" : 141520
        },
        {
            "buffer" : 0,
            "byteLength" : 240,
            "byteOffset" : 145228
        },
        {
            "buffer" : 0,
            "byteLength" : 240,
            "byteOffset" : 145468
        },
        {
            "buffer" : 0,
            "byteLength" : 160,
            "byteOffset" : 145708
        },
        {
            "buffer" : 0,
            "byteLength" : 96,
            "byteOffset" : 145868
        },
        {
            "buffer" : 0,
            "byteLength" : 56292,
            "byteOffset" : 145964
        },
        {
            "buffer" : 0,
            "byteLength" : 56292,
            "byteOffset" : 202256
        },
        {
            "buffer" : 0,
            "byteLength" : 37528,
            "byteOffset" : 258548
        },
        {
            "buffer" : 0,
            "byteLength" : 13800,
            "byteOffset" : 296076
        }
    ],
    "samplers" : [
        {
            "magFilter" : 9729,
            "minFilter" : 9987
        }
    ],
    "buffers" : [
        {
            "byteLength" : 309876,
            "uri" : "AK 9.bin"
        }
    ]
}
