{
  "accessors": [
    {
      "bufferView": 2,
      "componentType": 5126,
      "count": 696,
      "max": [
        0.11315199732780457,
        0.11315199732780457,
        -0.21098299324512482
      ],
      "min": [
        -0.11315199732780457,
        -0.11315199732780457,
        -1.0
      ],
      "type": "VEC3"
    },
    {
      "bufferView": 2,
      "byteOffset": 8352,
      "componentType": 5126,
      "count": 696,
      "max": [
        0.9999690055847168,
        0.9996433854103088,
        0.7732037305831909
      ],
      "min": [
        -0.9999690055847168,
        -0.9996433854103088,
        -0.8238335847854614
      ],
      "type": "VEC3"
    },
    {
      "bufferView": 3,
      "componentType": 5126,
      "count": 696,
      "max": [
        0.9999945163726807,
        0.999999463558197,
        0.6706969141960144,
        1.0
      ],
      "min": [
        -0.9999034404754639,
        -0.999998152256012,
        -0.6760677695274353,
        1.0
      ],
      "type": "VEC4"
    },
    {
      "bufferView": 1,
      "componentType": 5126,
      "count": 696,
      "max": [
        0.7778970003128052,
        0.9551330208778381
      ],
      "min": [
        0.23514500260353088,
        0.016255099326372147
      ],
      "type": "VEC2"
    },
    {
      "bufferView": 0,
      "componentType": 5125,
      "count": 3636,
      "type": "SCALAR"
    },
    {
      "bufferView": 2,
      "byteOffset": 16704,
      "componentType": 5126,
      "count": 342,
      "max": [
        0.057998500764369965,
        0.19214600324630737,
        -0.19994999468326569
      ],
      "min": [
        -0.057998500764369965,
        -0.19214600324630737,
        -0.22069400548934937
      ],
      "type": "VEC3"
    },
    {
      "bufferView": 2,
      "byteOffset": 20808,
      "componentType": 5126,
      "count": 342,
      "max": [
        0.9910036325454712,
        0.9878406524658203,
        0.990476667881012
      ],
      "min": [
        -0.9918307662010193,
        -0.9878405332565308,
        -0.9998530149459839
      ],
      "type": "VEC3"
    },
    {
      "bufferView": 3,
      "byteOffset": 11136,
      "componentType": 5126,
      "count": 342,
      "max": [
        0.6437354683876038,
        1.0,
        0.9914360046386719,
        1.0
      ],
      "min": [
        -0.6436544060707092,
        -0.10633829981088638,
        -0.9914857745170593,
        1.0
      ],
      "type": "VEC4"
    },
    {
      "bufferView": 1,
      "byteOffset": 5568,
      "componentType": 5126,
      "count": 342,
      "max": [
        0.48267900943756104,
        0.9826120138168335
      ],
      "min": [
        0.17850400507450104,
        0.7694969773292542
      ],
      "type": "VEC2"
    },
    {
      "bufferView": 0,
      "byteOffset": 14544,
      "componentType": 5125,
      "count": 1812,
      "type": "SCALAR"
    },
    {
      "bufferView": 2,
      "byteOffset": 24912,
      "componentType": 5126,
      "count": 83,
      "max": [
        0.011632700450718403,
        0.0845101997256279,
        1.0
      ],
      "min": [
        -0.011632700450718403,
        -0.1185149997472763,
        -0.21143899857997894
      ],
      "type": "VEC3"
    },
    {
      "bufferView": 2,
      "byteOffset": 25908,
      "componentType": 5126,
      "count": 83,
      "max": [
        1.0,
        1.0,
        0.9333630204200745
      ],
      "min": [
        -1.0,
        -1.0,
        -0.14172907173633575
      ],
      "type": "VEC3"
    },
    {
      "bufferView": 3,
      "byteOffset": 16608,
      "componentType": 5126,
      "count": 83,
      "max": [
        0.9814271330833435,
        0.9997281432151794,
        0.8454754948616028,
        1.0
      ],
      "min": [
        -0.9999222755432129,
        -0.9996922016143799,
        -0.9033163189888,
        1.0
      ],
      "type": "VEC4"
    },
    {
      "bufferView": 1,
      "byteOffset": 8304,
      "componentType": 5126,
      "count": 83,
      "max": [
        0.9849420189857483,
        0.9781590104103088
      ],
      "min": [
        0.013104699552059174,
        0.023860400542616844
      ],
      "type": "VEC2"
    },
    {
      "bufferView": 0,
      "byteOffset": 21792,
      "componentType": 5125,
      "count": 330,
      "type": "SCALAR"
    }
  ],
  "asset": {
    "extras": {
      "author": "ferrarif340 (https://sketchfab.com/ferrarif340)",
      "license": "CC-BY-4.0 (http://creativecommons.org/licenses/by/4.0/)",
      "source": "https://sketchfab.com/3d-models/kabar-us-military-knife-free-72cc3b9f223a4c81b1401f2156c66bcc",
      "title": "KABAR US Military Knife (Free)"
    },
    "generator": "Sketchfab-12.68.0",
    "version": "2.0"
  },
  "bufferViews": [
    {
      "buffer": 0,
      "byteLength": 23112,
      "name": "floatBufferViews",
      "target": 34963
    },
    {
      "buffer": 0,
      "byteLength": 8968,
      "byteOffset": 23112,
      "byteStride": 8,
      "name": "floatBufferViews",
      "target": 34962
    },
    {
      "buffer": 0,
      "byteLength": 26904,
      "byteOffset": 32080,
      "byteStride": 12,
      "name": "floatBufferViews",
      "target": 34962
    },
    {
      "buffer": 0,
      "byteLength": 17936,
      "byteOffset": 58984,
      "byteStride": 16,
      "name": "floatBufferViews",
      "target": 34962
    }
  ],
  "buffers": [
    {
      "byteLength": 76920,
      "uri": "scene.bin"
    }
  ],
  "images": [
    {
      "uri": "textures/1001_baseColor.jpeg"
    },
    {
      "uri": "textures/1001_metallicRoughness.png"
    },
    {
      "uri": "textures/1001_normal.png"
    }
  ],
  "materials": [
    {
      "doubleSided": true,
      "name": "1001",
      "normalTexture": {
        "index": 2
      },
      "occlusionTexture": {
        "index": 1
      },
      "pbrMetallicRoughness": {
        "baseColorTexture": {
          "index": 0
        },
        "metallicRoughnessTexture": {
          "index": 1
        }
      }
    }
  ],
  "meshes": [
    {
      "name": "defaultMaterial",
      "primitives": [
        {
          "attributes": {
            "NORMAL": 1,
            "POSITION": 0,
            "TANGENT": 2,
            "TEXCOORD_0": 3
          },
          "indices": 4,
          "material": 0,
          "mode": 4
        }
      ]
    },
    {
      "name": "defaultMaterial",
      "primitives": [
        {
          "attributes": {
            "NORMAL": 6,
            "POSITION": 5,
            "TANGENT": 7,
            "TEXCOORD_0": 8
          },
          "indices": 9,
          "material": 0,
          "mode": 4
        }
      ]
    },
    {
      "name": "defaultMaterial",
      "primitives": [
        {
          "attributes": {
            "NORMAL": 11,
            "POSITION": 10,
            "TANGENT": 12,
            "TEXCOORD_0": 13
          },
          "indices": 14,
          "material": 0,
          "mode": 4
        }
      ]
    }
  ],
  "nodes": [
    {
      "children": [
        1
      ],
      "matrix": [
        1.0,
        -1.6085949761747222e-16,
        2.8325012043266333e-16,
        0.0,
        2.832769343193999e-16,
        0.0001667264878053576,
        -1.0,
        0.0,
        1.6081226229577292e-16,
        1.0,
        0.0001667264878053576,
        0.0,
        5.624828165360588e-23,
        2.3950819105778015e-10,
        -2.56405202625487e-10,
        1.0
      ],
      "name": "Sketchfab_model"
    },
    {
      "children": [
        2,
        4,
        6
      ],
      "matrix": [
        1.0,
        0.0,
        0.0,
        0.0,
        0.0,
        -4.371139006309477e-08,
        0.999999999999999,
        0.0,
        0.0,
        -0.999999999999999,
        -4.371139006309477e-08,
        0.0,
        0.0,
        0.0,
        0.0,
        1.0
      ],
      "name": "Collada visual scene group"
    },
    {
      "children": [
        3
      ],
      "name": "Handle_low"
    },
    {
      "mesh": 0,
      "name": "defaultMaterial"
    },
    {
      "children": [
        5
      ],
      "name": "Handguard_low"
    },
    {
      "mesh": 1,
      "name": "defaultMaterial"
    },
    {
      "children": [
        7
      ],
      "name": "Blade_low"
    },
    {
      "mesh": 2,
      "name": "defaultMaterial"
    }
  ],
  "samplers": [
    {
      "magFilter": 9729,
      "minFilter": 9987,
      "wrapS": 10497,
      "wrapT": 10497
    }
  ],
  "scene": 0,
  "scenes": [
    {
      "name": "Sketchfab_Scene",
      "nodes": [
        0
      ]
    }
  ],
  "textures": [
    {
      "sampler": 0,
      "source": 0
    },
    {
      "sampler": 0,
      "source": 1
    },
    {
      "sampler": 0,
      "source": 2
    }
  ]
}
